<?xml version="1.0" encoding="UTF-8" standalone="no"?>
<!-- Created with Inkscape (http://www.inkscape.org/) -->

<svg
   width="45.440254mm"
   height="37.387314mm"
   viewBox="0 0 45.440255 37.387314"
   version="1.1"
   id="svg1"
   inkscape:version="1.4.3 (0d15f75042, 2025-12-25)"
   sodipodi:docname="logo.svg"
   xmlns:inkscape="http://www.inkscape.org/namespaces/inkscape"
   xmlns:sodipodi="http://sodipodi.sourceforge.net/DTD/sodipodi-0.dtd"
   xmlns="http://www.w3.org/2000/svg"
   xmlns:svg="http://www.w3.org/2000/svg">
  <sodipodi:namedview
     id="namedview1"
     pagecolor="#505050"
     bordercolor="#ffffff"
     borderopacity="1"
     inkscape:showpageshadow="0"
     inkscape:pageopacity="0"
     inkscape:pagecheckerboard="1"
     inkscape:deskcolor="#505050"
     inkscape:document-units="mm"
     inkscape:zoom="2.1897166"
     inkscape:cx="109.14654"
     inkscape:cy="116.68177"
     inkscape:window-width="2542"
     inkscape:window-height="1368"
     inkscape:window-x="0"
     inkscape:window-y="0"
     inkscape:window-maximized="1"
     inkscape:current-layer="layer1" />
  <defs
     id="defs1">
    <rect
       x="263.04773"
       y="255.74086"
       width="254.8275"
       height="193.63235"
       id="rect1" />
  </defs>
  <g
     inkscape:label="Слой 1"
     inkscape:groupmode="layer"
     id="layer1"
     transform="translate(-5.5712007e-8,3.0012235e-5)">
    <path
       d="m 22.960769,27.126447 q 0,4.826 -3.505199,7.5184 -3.5052,2.6924 -9.4488,2.6924 -3.0480003,0 -5.6388002,-0.4572 -2.5908,-0.4572 -4.31799997,-1.27 v -4.3688 q 1.82879997,0.8128 4.52119997,1.4732 2.7431999,0.6604 5.6388002,0.6604 4.064,0 6.096,-1.5748 2.0828,-1.5748 2.0828,-4.2672 0,-1.778 -0.762,-2.9972 -0.762,-1.2192 -2.6416,-2.2352 -1.8288,-1.0668 -5.1308003,-2.2352 -4.6228,-1.6764 -7.0103999,-4.1148 -2.33679998,-2.4384 -2.33679998,-6.6548001 0,-2.8955999 1.47319998,-4.9275999 1.4732,-2.0828 4.0639999,-3.2003999 2.6416,-1.11760003 6.0452003,-1.11760003 2.9972,0 5.4864,0.55879999 2.4892,0.55880004 4.521199,1.47319994 l -1.422399,3.9116 q -1.8796,-0.8128 -4.1148,-1.3716 -2.1844,-0.5588 -4.572,-0.5588 -3.4036003,0 -5.1308003,1.4732 -1.7272,1.4224 -1.7272,3.8099999 0,1.8288001 0.762,3.0480001 0.762,1.2192 2.4892,2.1844 1.7272003,0.9652 4.6736003,2.0828 3.2004,1.1684 5.3848,2.54 2.2352,1.3208 3.352799,3.2004 1.1684,1.8796 1.1684,4.7244 z"
       id="text2"
       style="font-size:50.8px;fill:#6c5353;stroke-width:0.1"
       aria-label="S" />
    <g
       id="text3"
       style="font-size:26.6888px;line-height:0.7;fill:#6c5353;stroke-width:0.210148"
       transform="scale(1.0315954,0.96937232)"
       aria-label="i&#10;m">
      <path
         d="m 24.623973,0.10834986 q 0.533776,0 0.934108,0.37364322 0.42702,0.34695441 0.42702,1.12092962 0,0.7472864 -0.42702,1.1209296 -0.400332,0.3736433 -0.934108,0.3736433 -0.587154,0 -0.987486,-0.3736433 -0.400332,-0.3736432 -0.400332,-1.1209296 0,-0.77397521 0.400332,-1.12092962 0.400332,-0.37364322 0.987486,-0.37364322 z M 25.771591,5.4727988 V 19.777996 H 23.422977 V 5.4727988 Z"
         id="path1" />
      <path
         d="m 39.115991,23.888071 q 2.428681,0 3.629677,1.254374 1.200996,1.227685 1.200996,4.00332 v 9.314391 H 41.624739 V 29.25252 q 0,-3.389478 -2.90908,-3.389478 -2.081726,0 -2.989145,1.200996 -0.880731,1.200996 -0.880731,3.496233 v 7.899885 H 32.523858 V 29.25252 q 0,-3.389478 -2.935768,-3.389478 -2.161793,0 -2.989146,1.33444 -0.827353,1.33444 -0.827353,3.843188 v 7.419486 H 23.422977 V 24.154959 h 1.894904 l 0.346955,1.948283 h 0.133444 q 0.66722,-1.12093 1.788149,-1.654706 1.147619,-0.560465 2.428681,-0.560465 3.362789,0 4.376964,2.401992 h 0.133444 q 0.720597,-1.227685 1.948282,-1.814838 1.254374,-0.587154 2.642191,-0.587154 z"
         id="path2" />
    </g>
    <path
       d="m 41.491303,14.680435 q 0,2.535436 -1.841527,3.949943 -1.841528,1.414506 -4.964117,1.414506 -1.601328,0 -2.962457,-0.240199 -1.361129,-0.240199 -2.268548,-0.66722 v -2.295237 q 0.960797,0.427021 2.375303,0.773975 1.441195,0.346955 2.962457,0.346955 2.135104,0 3.202656,-0.827353 1.094241,-0.827353 1.094241,-2.241859 0,-0.934109 -0.400332,-1.57464 -0.400332,-0.640531 -1.387818,-1.174307 -0.960797,-0.560465 -2.695569,-1.174307 -2.428681,-0.880731 -3.683054,-2.1617931 -1.227685,-1.2810624 -1.227685,-3.4962329 0,-1.5212616 0.773975,-2.5888137 0.773975,-1.0942408 2.135104,-1.6813944 1.387818,-0.58715362 3.175968,-0.58715362 1.574639,0 2.88239,0.2935768 1.307751,0.29357682 2.375303,0.77397522 L 40.290307,3.577894 Q 39.302821,3.1508732 38.128514,2.8572963 36.980896,2.5637195 35.726522,2.5637195 q -1.78815,0 -2.695569,0.7739753 -0.907419,0.7472864 -0.907419,2.00166 0,0.9607969 0.400332,1.6013281 0.400332,0.6405312 1.307751,1.1476184 0.907419,0.5070872 2.45537,1.0942408 1.681394,0.6138425 2.829013,1.3344399 1.174307,0.693909 1.761461,1.681395 0.613842,0.987485 0.613842,2.482058 z"
       id="text3-3"
       style="font-size:26.6888px;line-height:0.7;fill:#deaa87;stroke-width:0.210148"
       transform="scale(1.0315954,0.9693723)"
       aria-label=" S" />
  </g>
</svg>
